<?xml version="1.0" encoding="UTF-8"?>
<svg xmlns="http://www.w3.org/2000/svg" xmlns:xlink="http://www.w3.org/1999/xlink" width="14px" height="14px" viewBox="0 0 14 14" version="1.1">
<g id="surface1">
<path style=" stroke:none;fill-rule:nonzero;fill:rgb(100%,100%,100%);fill-opacity:1;" d="M 6.832031 2.519531 C 4.984375 2.519531 3.25 2.660156 2.324219 2.855469 C 1.707031 2.996094 1.175781 3.414062 1.0625 4.058594 C 0.953125 4.730469 0.839844 5.738281 0.839844 7 C 0.839844 8.261719 0.953125 9.238281 1.089844 9.941406 C 1.203125 10.554688 1.734375 11.003906 2.351562 11.144531 C 3.332031 11.339844 5.011719 11.480469 6.859375 11.480469 C 8.707031 11.480469 10.386719 11.339844 11.367188 11.144531 C 11.984375 11.003906 12.515625 10.585938 12.628906 9.941406 C 12.738281 9.238281 12.878906 8.234375 12.90625 6.972656 C 12.90625 5.710938 12.765625 4.703125 12.628906 4.003906 C 12.515625 3.386719 11.984375 2.941406 11.367188 2.800781 C 10.386719 2.660156 8.679688 2.519531 6.832031 2.519531 Z M 6.832031 3.078125 C 8.847656 3.078125 10.472656 3.246094 11.253906 3.386719 C 11.675781 3.5 12.011719 3.78125 12.066406 4.144531 C 12.234375 5.039062 12.347656 5.992188 12.347656 6.972656 C 12.320312 8.175781 12.179688 9.15625 12.066406 9.855469 C 11.984375 10.386719 11.425781 10.554688 11.253906 10.613281 C 10.246094 10.808594 8.566406 10.949219 6.886719 10.949219 C 5.207031 10.949219 3.5 10.835938 2.519531 10.613281 C 2.101562 10.5 1.765625 10.21875 1.707031 9.855469 C 1.484375 9.070312 1.398438 8.035156 1.398438 7 C 1.398438 5.710938 1.511719 4.761719 1.625 4.171875 C 1.707031 3.640625 2.296875 3.472656 2.4375 3.414062 C 3.359375 3.21875 5.070312 3.078125 6.832031 3.078125 Z M 5.320312 4.761719 L 5.320312 9.238281 L 9.238281 7 Z M 5.878906 5.710938 L 8.121094 7 L 5.878906 8.289062 Z M 5.878906 5.710938 "/>
</g>
</svg>
