<?xml version="1.0" encoding="UTF-8"?>
<svg xmlns="http://www.w3.org/2000/svg" xmlns:xlink="http://www.w3.org/1999/xlink" width="14px" height="14px" viewBox="0 0 14 14" version="1.1">
<g id="surface1">
<path style=" stroke:none;fill-rule:nonzero;fill:rgb(100%,100%,100%);fill-opacity:1;" d="M 7 0.28125 C 4.375 0.28125 2.238281 2.414062 2.238281 5.039062 C 2.238281 6.140625 2.613281 7.15625 3.242188 7.964844 C 3.605469 8.457031 4.351562 9.363281 5.035156 10.367188 C 5.722656 11.371094 6.332031 12.480469 6.425781 13.230469 C 6.425781 13.234375 6.425781 13.234375 6.425781 13.234375 C 6.464844 13.511719 6.703125 13.71875 6.984375 13.71875 C 7.261719 13.71875 7.507812 13.511719 7.542969 13.230469 C 7.632812 12.5 8.214844 11.4375 8.882812 10.460938 C 9.550781 9.480469 10.289062 8.578125 10.683594 8.058594 C 10.679688 8.0625 10.691406 8.042969 10.699219 8.035156 C 11.363281 7.21875 11.761719 6.171875 11.761719 5.039062 C 11.761719 2.414062 9.625 0.28125 7 0.28125 Z M 7 0.839844 C 7.171875 0.839844 7.332031 0.871094 7.496094 0.890625 L 5.558594 3.257812 L 4.058594 2.042969 C 4.816406 1.300781 5.851562 0.839844 7 0.839844 Z M 8.121094 1.011719 C 9.261719 1.328125 10.195312 2.101562 10.726562 3.132812 L 9.226562 4.96875 C 9.183594 3.769531 8.207031 2.800781 7 2.800781 C 6.855469 2.800781 6.726562 2.855469 6.589844 2.882812 Z M 3.695312 2.472656 L 5.207031 3.691406 L 3.023438 6.359375 C 2.886719 5.945312 2.800781 5.503906 2.800781 5.039062 C 2.800781 4.066406 3.144531 3.183594 3.695312 2.472656 Z M 7 3.359375 C 7.933594 3.359375 8.679688 4.105469 8.679688 5.039062 C 8.679688 5.972656 7.933594 6.71875 7 6.71875 C 6.066406 6.71875 5.320312 5.972656 5.320312 5.039062 C 5.320312 4.105469 6.066406 3.359375 7 3.359375 Z M 10.96875 3.71875 C 11.105469 4.136719 11.199219 4.574219 11.199219 5.039062 C 11.199219 6.042969 10.847656 6.964844 10.261719 7.6875 C 10.257812 7.691406 10.253906 7.699219 10.246094 7.707031 C 10.265625 7.679688 10.257812 7.691406 10.234375 7.722656 C 9.859375 8.21875 9.105469 9.140625 8.421875 10.144531 C 7.734375 11.148438 7.101562 12.226562 6.984375 13.160156 C 6.984375 13.164062 6.984375 13.164062 6.984375 13.164062 C 6.984375 13.164062 6.992188 13.160156 6.984375 13.160156 C 6.980469 13.160156 6.980469 13.160156 6.980469 13.15625 C 6.867188 12.261719 6.273438 11.226562 5.621094 10.253906 Z M 4.773438 5.105469 C 4.808594 6.308594 5.789062 7.28125 7 7.28125 C 7.140625 7.28125 7.265625 7.222656 7.398438 7.199219 L 5.292969 9.773438 C 4.660156 8.886719 3.992188 8.035156 3.6875 7.625 C 3.6875 7.625 3.6875 7.621094 3.683594 7.621094 C 3.519531 7.40625 3.417969 7.152344 3.296875 6.910156 Z M 4.773438 5.105469 "/>
</g>
</svg>
